<svg xmlns="http://www.w3.org/2000/svg" xmlns:xlink="http://www.w3.org/1999/xlink" viewBox="0 0 1410 993">
  <g class='g_to_interact_with' id="Layer_1_B_letter_A_letter_X_letter_Y_letter_xx_bth_Layer_7_Layer_6_Image" data-name="Layer 1 + B_letter + A_letter + X_letter + Y_letter + xx_bth + Layer 7 + Layer 6 Image">
     <image id="Layer_1_B_letter_A_letter_X_letter_Y_letter_xx_bth_Layer_7_Layer_6_Image-2" data-name="Layer 1 + B_letter + A_letter + X_letter + Y_letter + xx_bth + Layer 7 + Layer 6 Image" width="1410" height="993" xlink:href="MasterNoelB1.png"/>
  </g>
  <g class='g_to_interact_with'  id="btn_right" style="isolation: isolate">
    <path d="M882,402c21.36-.3,33.09,3.88,47,9,5.12,1.88,9.25-.46,13,2,11.16,7.31,29.36,29.93,35,43l3,18c12.79,49.87-29.75,89-66,98H874c-33.17-8.22-53.69-27.85-65-58-3.38-9-8.61-27.37-5-42,1.75-7.11,3.55-17.11,7-24,5.53-11,36.65-35.65,49-41C866.78,404.06,876.28,405.93,882,402Z" fill-rule="evenodd"/>
    <path d="M881,402c-6.35,4.29-15.19.23-24,3-16.89,5.31-38.31,27.87-46,43-3.3,6.51-5.26,16.31-7,23-2.32,8.92.36,24,2,30,1.78,6.52.43,10.7,3,16,12.78,26.36,32.45,46.35,64,54h42c27.22-6.89,50.13-26.64,60-51,1.85-4.57,9-21.84,5-31l-4-3c-1-2.26-.75-9.68-1-11-1.47-7.73,5.79-10.84,2-19-5.3-11.42-10.85-15-19-23C937.18,412.64,923.18,401.71,881,402Z" fill-rule="evenodd"/>
  </g>
  <g class='g_to_interact_with' id="xx_btn">
    <path d="M696,76c-3.36,2.26-7.77,1.16-12,3a62.38,62.38,0,0,0-33,33q-.5,8-1,16c0,29.14,15.56,42.22,37,50,5.69,2.07,15.62,6.51,25,4,21.14-5.66,36.48-16.91,45-35,8.25-17.51-1.22-48.88-13-55l-7-1L726,79C718.46,75.18,706.74,75.83,696,76Z" fill-rule="evenodd"/>
  </g>
  <g class='g_to_interact_with'  id="btn_Y">
    <path d="M1063,130c-3.38,2.5-7.73,2.08-12,4-8.55,3.83-20.26,15.38-24,24-15.14,34.9,19.37,78.9,59,68,22.57-6.21,45-34.23,31-66C1108.49,140.68,1091.62,129.49,1063,130Z" fill-rule="evenodd"/>
  </g>
  <g class='g_to_interact_with'  id="base" style="isolation: isolate">
    <path d="M414,42c32.32-.24,50,8.1,74,14H922c17.61-4.34,48.46-20.29,74-14,14.25,3.51,30.82,3.92,46,8,24.41,6.56,48.25,14.78,70,23,3.88,1.47,6.24.31,10,2,12.92,5.81,26.61,13.81,39,20,2.91,1.45,5.13.49,8,2,8.78,4.61,16.3,12.28,27,15v-2c-1.28-1.75-1.68-4.22-2-7h1v1h1l6,16,13,11c7.49,7.5,12.65,16.26,19,25,2,2.79,6.08,5.06,8,8,7.43,11.39,9.46,26.05,15,39,5,11.8,12,26.52,17,38,3.35,7.64,3.39,16.65,7,24,.82,1.67,4.34,4.52,5,6,.33,3.67.67,7.33,1,11,6.62,17.61,14.57,37.71,22,55,.33,3,.67,6,1,9,1,2.84,4,6.25,5,9q1,6,2,12c11.19,33.14,24.4,68.8,35,103,10.41,33.6,15.06,71.37,28,103q1,8.5,2,17c10,31.28,11.93,68.49,20,103l3,47c4.11,19.06,1.93,57.12-2,74v10c-3.77,16-5.48,32.94-11,48-14.71,40.18-39.46,71.41-75,91-5.67,3.13-13,6.26-19,10-.21.13-4,5-4,5-1.57.82-5.93-2.27-9-1-6.65,2.75-3.1,10.29-13,11-7.43,4.58-22.93-7.69-27-11-20.82-16.94-43.85-31.55-60-53-17.67-23.47-37.78-44.26-53-70l-6-5c-6.28-8.4-11.73-16.62-18-25l-6-5c-27.85-38.4-58.48-77.49-103-99-8.58-4.15-20.1-6.66-29-9-8.74-2.29-21.42-.29-28-2H548c-24.89,0-57.69-3.54-79,2H438c-22.05,5.94-41.81,15.2-58,27-4.23,3.08-7.15,8.48-11,12-2.88,2.63-7.07,3.39-10,6-10.23,9.11-18.73,20.89-27,32l-9,8c-7.62,10.23-14.44,19.58-22,30l-6,5c-5.37,7.38-9.41,14.87-15,22l-6,4c-9,14-17.39,25.79-27,39-3.15,4.33-8.8,7.7-12,12-14.45,19.45-30.41,37.71-50,52-8.54,6.23-17.09,18.72-29,21-1.64-2-4.22-3.18-7-4-1.53,1.75-7.89,5.6-13,6-4.18-5.15-11.28-3.15-18-6-2.64-1.12-6.43-4.67-9-6-10.11-5.24-19.37-8.59-29-14-4-2.27-6.39-7.36-10-10-23.94-17.49-39.73-43-52-72-1.81-4.28-.27-6.68-2-11C6.58,840.46,2,810.35,2,778c0-14-1.68-33.28,2-44V713c3.18-9.16,2.9-24,6-33,3.28-9.52-1.2-17.9,2-27,4.23-12,5.87-29.39,10-41,2.27-6.38-.54-11.08,2-17,.9-2.09,5.17-4.11,6-6,4-9.07-5.2-15.89-4-23,1.61-9.57,8-19.74,11-28,2.57-7.18.83-13.16,4-20,.86-1.85,4.1-4,5-6,4.58-10.29,4-20.79,8-32,3.8-10.66,9.68-24.42,13-35,1.57-5,.24-8.09,2-13,22.72-63.47,42.81-129.85,69-190,.33-2.67.67-5.33,1-8,5.31-13.75,13.65-29.86,19-44,2.81-7.44,3.06-15.39,7-22,12.6-21.13,32.77-36.27,47-56,1.18,1.9-.06,1.21,2,1,6.34-1.88,10.87-7.12,16-10,8.66-4.86,17.51-9.59,26-14,22-11.41,47.27-18.08,70-28l12-2c14.93-5.39,33.63-8.79,50-13C396.26,43.87,407.85,46.38,414,42Z" fill-rule="evenodd"/>
  </g>
  <g class='g_to_interact_with'  id="btn_cross">
    <path d="M503,390c-3.69,2.49-9.26,1.18-14,3-5.56,2.14-9,8.16-13,12,0,8.69.48,18.12,2,24,3,11.55-2,21.9-2,34-13.64,4.53-44.47,1.08-61,1v1c-15.9,5.33-17,75.73,2,79,10.32,6.24,46.36-3.6,58,4,2,3.14,1,11.15,1,16v40h1c5.6,16.91,74.12,18.22,80,2,3.79-6.12.08-46.65,2-57,3.61-.93,6.57-3.14,10-4,12.8-3.22,37.74.55,51-1,9.94-12.48,15.79-34.3,10-56-2.71-10.15.06-19.65-9-23-3.31-2.08-11.93-1-17-1H561c-4-12-1.09-32.95-1-47-3.75-4.84-7.92-20.61-11-22C539.32,388.15,519.05,389.92,503,390Z" fill-rule="evenodd"/>
  <path d="M327,188c-2.93,2.14-5.48.71-10,2-6.46,1.85-12.49,6.91-18,9H288c-8.71,3.6-26.5,27.63-31,37-19.62,40.86,3.83,87.1,29,105,6.95,4.94,14.26,6.74,23,10,9.68,3.61,30.4,8.86,46,5,35.92-8.9,57-28.06,69-61,2.89-7.92,7.5-26.79,4-40-2.64-10-6.25-20.49-11-29-2.56-4.58-8.36-6.45-12-10C385.43,196.89,367.14,187.69,327,188Z" fill-rule="evenodd"/>
  <path d="M696,76c-3.36,2.26-7.77,1.16-12,3a62.38,62.38,0,0,0-33,33q-.5,8-1,16c0,29.14,15.56,42.22,37,50,5.69,2.07,15.62,6.51,25,4,21.14-5.66,36.48-16.91,45-35,8.25-17.51-1.22-48.88-13-55l-7-1L726,79C718.46,75.18,706.74,75.83,696,76Z" fill-rule="evenodd"/>
  <path d="M882,402c21.36-.3,33.09,3.88,47,9,5.12,1.88,9.25-.46,13,2,11.16,7.31,29.36,29.93,35,43l3,18c12.79,49.87-29.75,89-66,98H874c-33.17-8.22-53.69-27.85-65-58-3.38-9-8.61-27.37-5-42,1.75-7.11,3.55-17.11,7-24,5.53-11,36.65-35.65,49-41C866.78,404.06,876.28,405.93,882,402Z" fill-rule="evenodd"/>
    <path d="M881,402c-6.35,4.29-15.19.23-24,3-16.89,5.31-38.31,27.87-46,43-3.3,6.51-5.26,16.31-7,23-2.32,8.92.36,24,2,30,1.78,6.52.43,10.7,3,16,12.78,26.36,32.45,46.35,64,54h42c27.22-6.89,50.13-26.64,60-51,1.85-4.57,9-21.84,5-31l-4-3c-1-2.26-.75-9.68-1-11-1.47-7.73,5.79-10.84,2-19-5.3-11.42-10.85-15-19-23C937.18,412.64,923.18,401.71,881,402Z" fill-rule="evenodd"/>
  
  </g>
  <g class='g_to_interact_with'  id="bth_left">
    <path d="M327,188c-2.93,2.14-5.48.71-10,2-6.46,1.85-12.49,6.91-18,9H288c-8.71,3.6-26.5,27.63-31,37-19.62,40.86,3.83,87.1,29,105,6.95,4.94,14.26,6.74,23,10,9.68,3.61,30.4,8.86,46,5,35.92-8.9,57-28.06,69-61,2.89-7.92,7.5-26.79,4-40-2.64-10-6.25-20.49-11-29-2.56-4.58-8.36-6.45-12-10C385.43,196.89,367.14,187.69,327,188Z" fill-rule="evenodd"/>
  </g>
  <g class='g_to_interact_with'  id="btn_X">
    <path d="M961,226c-3.64,2.7-8.84,2.7-13,5-9.55,5.29-18.9,18.3-22,30v23c4.82,17.51,28.83,46,58,38,30.15-8.3,50.49-41,31-76C1005.71,229.3,988.14,225.49,961,226Z" fill-rule="evenodd"/>
  </g>
  <g class='g_to_interact_with'  id="btn_B">
    <path d="M1157,230c-2.93,2.12-7.31,1.23-11,3-10.49,5-20.28,16.22-24,28-10.25,32.49,22.61,75.29,60,65,25-6.88,45.1-36.77,29-68C1201.7,240,1185.45,229.47,1157,230Z" fill-rule="evenodd"/>
  <path d="M961,226c-3.64,2.7-8.84,2.7-13,5-9.55,5.29-18.9,18.3-22,30v23c4.82,17.51,28.83,46,58,38,30.15-8.3,50.49-41,31-76C1005.71,229.3,988.14,225.49,961,226Z" fill-rule="evenodd"/>
  </g>
  <g class='g_to_interact_with'  id="btn_A">
    <path d="M1061,320c-3.8,2.82-9.72,2.47-14,5-11.38,6.73-21.24,19.81-25,34-2.24,8.45,1.24,18.24,3,23,.67,3,1.33,6,2,9,6.74,13.09,30.44,33.55,56,27,21.89-5.61,48.63-35,34-66C1107.24,331.32,1092.33,319.44,1061,320Z" fill-rule="evenodd"/>
  <path d="M1063,130c-3.38,2.5-7.73,2.08-12,4-8.55,3.83-20.26,15.38-24,24-15.14,34.9,19.37,78.9,59,68,22.57-6.21,45-34.23,31-66C1108.49,140.68,1091.62,129.49,1063,130Z" fill-rule="evenodd"/>
  </g>
  <g class='g_to_interact_with'  id="shadow_Image" data-name="shadow Image">
    <image id="shadow_Image-2" data-name="shadow Image" width="1410" height="993" xlink:href="MasterNoelB2.png"/>
  </g>
</svg>
