<svg xmlns="http://www.w3.org/2000/svg" xmlns:xlink="http://www.w3.org/1999/xlink" viewBox="0 0 600 600">
  <g class='g_to_interact_with' id="Layer_1" data-name="Layer 1" style="isolation: isolate">
    <path d="M258,200l10,1c1.46,2.12,2.84,2.5,4,5,2,2.73,2.08,7.11,2,12-3.32,3.29-3.71,6.36-10,7-1.42,1-3.27,1-6,1-3.83-3.78-8.27-4.92-9-12-2.28-3.54,1.81-10.55,5-12C254.86,201.35,257.14,200.66,258,200Z"  fill-rule="evenodd"/>
    <path d="M340,201h8c3.9,5.38,8.71,7.45,10,16-4.26,3.34-2.95,8.06-10,9-3.27,2.36-5.48,1.37-10,1l-6-7q-.5-6-1-12c1.37-1.4,2.32-5.08,4-6S338.85,201.8,340,201Z"  fill-rule="evenodd"/>
  </g>
  <g class='g_to_interact_with' id="_4_buttons" data-name="4_buttons" style="isolation: isolate">
    <path d="M446,158c10.29-.18,20.22,4.77,21,14,2.73,4.09.46,13.4,0,18-5.31,3.68-5.23,7-15,7-2.39-1.57-8.63-1.83-12-2-2.79-4.07-6.29-4.61-7-11-2.58-4.08-1.49-12.74-2-16,2.76-1.78,4.42-5.45,7-7S443.68,159.75,446,158Z"  fill-rule="evenodd"/>
    <path d="M404,196l16,1c3.77,5.33,14.6,15.87,8,25-1.47,6.07-7.05,12.39-14,13-3.49,2.35-9.9.43-14,0-3.26-4.67-8.18-5.73-9-13-2.54-3.79-.44-11.67,0-16,3.4-2.25,5.61-7.11,9-9C401.55,196.14,402.94,196.81,404,196Z"  fill-rule="evenodd"/>
    <path d="M484,200c12.39.73,22.09,10.18,22,24-3.93,4.79-6,10.2-14,11-3.49,2.35-9.9.43-14,0-5.05-7.26-12-8.15-12-21,3.18-3.67,5.74-8.54,10-11C478.74,201.42,481.65,201.74,484,200Z"  fill-rule="evenodd"/>
    <path d="M450,237h6a90.29,90.29,0,0,0,10,11c.06,6.67-.58,12.49-1,18-5.13,3.48-6.9,8.18-15,9-10.05,6.52-19.18-8.79-23-13a79.83,79.83,0,0,1,0-14c3.08-2.58,6.23-7,9-10C440.28,238.15,447.39,238.74,450,237Z"  fill-rule="evenodd"/>
  </g>
  <g class='g_to_interact_with' id="top" style="isolation: isolate">
    <path d="M316,164a30.34,30.34,0,0,0,7-1,16.35,16.35,0,0,1,4-7c1.37-16.68-6-19.55-15-28a146.93,146.93,0,0,0-19,1c-8.95,11.06-12.7,11.12-10,32,12.31,10.1,12.07,14.69,33,8Z"  fill-rule="evenodd"/>
    <path d="M232,116c13.68-.08,22.49,2,35,2,22.1,0,50.3-2.52,69,2,13,3.14,30.1-1.31,42,1,4.36,7.06,10.58,14.47,11,25-6.24,4.58-10.57,11.57-16,17-7.32,7.32-15.83,13.54-23,21H318c-1-.39-3-3.62-4-4H296c-14.95,0-35.58,2.44-46-3-6.41-3.35-10-12.94-15-18-5.55-5.61-14.09-11-15-21C224.76,131.35,227.8,122.55,232,116Z"  fill-rule="evenodd"/>
  </g>
  <g class='g_to_interact_with' id="left_button" style="isolation: isolate">
    <path d="M150,174c22.67-.58,34.59,6.94,41,22,8.8,20.68-7.76,42.2-19,47-27.15,11.59-55.21-15.91-48-43,1.88-7.08,8.48-17.29,14-21C141.61,176.57,146.45,176.43,150,174Z"  fill-rule="evenodd"/>
  </g>
  <g class='g_to_interact_with' id="right_button" style="isolation: isolate">
    <path d="M368,264c20.38-.59,33.19,6.57,39,20,8.88,20.52-2.41,42.78-17,49l-14,1c-22.3,0-31.76-10.6-36-28-3.84-15.75,11.09-37.92,22-39C363.53,265.65,366.31,265.25,368,264Z"  fill-rule="evenodd"/>
  </g>
  <g class='g_to_interact_with' id="cross" style="isolation: isolate">
    <path d="M212,344c.1-8.61.4-18.95-1-26-18.75-7.43-29.89,8.25-29-22,.8-1.18.77-1.68,1-4l2-1c4.08-2.94,19.74-.66,27-2,2.49-5.78,1.65-17.9,3-25l3-1c1.72-1.19,4.88-1,8-1,16.69-.05,14.81,9.7,14,26,.8,1,.35.27,1,2,5.78,2.49,17.9,1.65,25,3,.33,1,.67,2,1,3,1.19,1.72,1,4.88,1,8,.05,16.69-9.7,14.81-26,14-1,.8-.27.35-2,1-2.49,5.78-1.65,17.9-3,25l-3,1C228.41,348.72,217.51,344.58,212,344Z"  fill-rule="evenodd"/>
  </g>
  <g class='g_to_interact_with'id="base" style="isolation: isolate">
    <path d="M368,264c-12.11,8.21-20.57,7.83-26,24-8.46,25.17,13,55.15,44,46,16.06-4.74,31.31-27.67,21-49C400.27,271.08,389.63,263.46,368,264Z"  fill-rule="evenodd"/>
    <path d="M212,344c7.65.64,15.71,2.62,24,1,2.49-5.78,1.65-17.9,3-25l3-1c4-2.6,16-1.13,22-1l2-3c3.28-4.08,2.2-15.49,1-21-5.78-2.49-17.9-1.65-25-3l-1-3c-2.82-4.36-1.13-17.59-1-24-8.31-.15-16.35-1.5-24,0,.18,9.86-1.34,16.25-3,24l-3,1c-5.06,3.27-20.46.74-25,1a70,70,0,0,0-3,22c7.87,4.81,17.2,3,28,5l1,3C213.82,324.36,212.13,337.59,212,344Z"  fill-rule="evenodd"/>
    <path d="M450,237c-2.93,1.85-12.55,1.38-16,2-3.75,5.84-7.76,9.31-8,19,5.44,8.32,6.76,15.49,18,18,11.71,2.61,29.59-15.3,21-28C463.23,241.92,458.11,237,450,237Z"  fill-rule="evenodd"/>
    <path d="M336,222c3.25.83,1.53-.49,3,2h-3Z"  fill-rule="evenodd"/>
    <path d="M350,221c1.62,1.35,1.12.64,2,3h-3C349.33,223,349.67,222,350,221Z"  fill-rule="evenodd"/>
    <path d="M334,219c2.54,1.46,1.13-.22,2,3h-2Z"  fill-rule="evenodd"/>
    <path d="M340,204c-5.18,5.49-6.24,9.1-8,18,3.3,1.43,3,3,7,4,2.68-4.56,9.65-.89,13,0,1-2.8,1.52-2.1,2-6-.64-1.35-.43-8.91-1-12a25,25,0,0,1-5-4Z"  fill-rule="evenodd"/>
    <path d="M258,202c-1.82,2-4,4.17-6,6a68.69,68.69,0,0,0,1,14c3.67,2.38,4.44,3.88,11,4,2.42-3.47,9-9.61,7-14C270,205.39,265.25,202.31,258,202Z"  fill-rule="evenodd"/>
    <path d="M484,200c-5.35,4.25-12.17,5.18-16,11-2,2.52-2.1,6.21-2,11,4.47,3.75,7.57,10.37,13,13,10.81,5.24,25.05-3.73,27-11,1.47-5.46-1.94-10.25-3-14C496.49,206.67,492.85,200.86,484,200Z"  fill-rule="evenodd"/>
    <path d="M404,196c-1.07.75-.95.6-3,1-8.12,10-12.46,9.13-10,28a67.05,67.05,0,0,1,10,10c5.24-1.47,12.39-3.48,19-5a50.63,50.63,0,0,1,6-8c.14-6.72,1.17-15.17,0-17C422.23,197.24,416,195.65,404,196Z"  fill-rule="evenodd"/>
    <path d="M150,174c-2.91,2-7,2-10,4-6.18,4.05-13.84,14.31-16,22-7,25,17.89,51.7,44,44,12.36-3.65,33-25.88,23-47C183.81,181.81,173.45,173.4,150,174Z"  fill-rule="evenodd"/>
    <path d="M446,158c-2.85,2.33-6.94,2.77-10,5-2,1.48-2.93,4.4-5,6q1,9,2,18c8.53,6.69,9.94,9.92,26,10,7.73-9.65,10.3-10.43,8-28C460.54,163.93,457.79,158.25,446,158Z"  fill-rule="evenodd"/>
    <path d="M186,102c16.79-.55,40.32,5.35,44,16-4.25,5.76-9.28,15.78-10,24,9.91,9.78,22.71,36.19,36,40h50c6,1.41,37.67,5,44,1,5.73-1.85,7.28-6.28,11-10,7.05-7.05,27.34-20.59,28-32-1.28-1.15-7-21-7-21,2.45-5.92,25.7-17,38-14,24.68,6,52.73,12.13,69,27,1,.92,7.6,8.21,8,9,2.43,4.78.84,9.39,4,13,3.34,3.83,9.34,6.58,12,11,9.44,15.69,12.94,33.22,20,52,14.48,38.51,26.24,81.28,37,124,3.25,12.9,3.15,26.21,6,38v31c0,42.38-20.18,80.19-58,83-6.74-6.4-16.47-9.85-23-17-12.85-14.06-21.24-33.67-34-48-7.59-8.52-17.55-14.27-26-22-6-5.47-10.11-12.3-18-16-8.61-4-18.19-.4-29-3-14.36-3.45-36.41-2-54-2-22.42,0-38.82-2-61-2-22,0-77.71-4.06-92,3-27.81,13.74-38.56,38.74-58,60-3.45,3.77-8.38,6.38-12,10-7.78,7.78-15.77,22.38-29,24-11,7-30.51-11.5-35-16-5.66-5.66-12.53-11.26-16-19-13.34-29.74-5.32-87.55,3-118,12-43.92,28-84.52,43-124,6.69-17.58,10.28-33.87,20-48,3-4.35,8.56-7.09,12-11,4.89-5.56,4.94-13.57,11-18a145.19,145.19,0,0,1,34-18C163.51,105.57,178.09,107.48,186,102Z"  fill-rule="evenodd"/>
  </g>
  <g class='g_to_interact_with' id="shadow_Image" data-name="shadow Image">
    <image id="shadow_Image-2" data-name="shadow Image" width="595" height="599" transform="translate(1) scale(1.01 1)" xlink:href="xbox_white_white1.png"/>
  </g>
</svg>
