<svg xmlns="http://www.w3.org/2000/svg" xmlns:xlink="http://www.w3.org/1999/xlink" viewBox="0 0 1500 1500">
  <defs>
    <mask id="mask" x="0" y="0" width="1500" height="1500" maskUnits="userSpaceOnUse">
      <g class='g_to_interact_with' id="right_bottomOpacity_Mask" data-name="right_bottomOpacity Mask">
        <image id="right_bottomOpacity_Mask-2" data-name="right_bottomOpacity Mask" width="1500" height="1500" xlink:href="xbox_012.png"/>
      </g>
    </mask>
  </defs>
  <g class='g_to_interact_with' id="Layer_0_Image" data-name="Layer 0 Image">
    <image id="Layer_0_Image-2" data-name="Layer 0 Image" width="1500" height="1500" xlink:href="xbox_011.png"/>
  </g>
  <g class='g_to_interact_with' id="X_bottom" style="isolation: isolate">
    <path d="M670,372c-.23-18.49,9.22-30.68,17-42,3.08-4.49,7-4.74,8-12-4.86-2.85-13.29-6.92-14-14,2.73-1.71,2.5-2.54,7-3,7-4.2,16.31,4.37,21,6,6.52,2.26,11.51-4.52,15-6,5-2.14,10.85-.41,16,0,1.53,2.46,2.29,2.28,3,6-5.24,3.09-13.29,7.31-14,15,9.43,9,27.31,36.37,24,54h-4c-6.11-11.5-25.28-41.57-39-43-7.23,10-18.78,16.91-27,26-3.6,4-3.4,9.87-9,12C672.82,371.8,672.32,371.77,670,372Z"  fill-rule="evenodd"/>
  </g>
  <g class='g_to_interact_with' id="bottom_left" style="isolation: isolate">
    <path d="M334,404c40.89-.58,74.51,10.66,89,36a115,115,0,0,1,10,24c16.79,56.38-27.74,98-69,108-12.87,3.12-33.33-.31-42-3-31.87-9.88-42.89-20.55-57-48-4.74-9.21-11.31-31.59-7-49,1.28-5.17,2.6-12.64,5-18,5.17-11.54,14.19-20.16,22-29,2.05-2.31,2.29-7.49,5-9,5.68-3.17,12.34-.62,19-3C313,411.58,330.83,406.18,334,404Z"  fill-rule="evenodd"/>
  </g>
  <g class='g_to_interact_with' id="cross" style="isolation: isolate">
    <path d="M566,680h43c5.06,0,13.69-1.09,17,1,17.8,5.59,17.76,77.83-4,80-5.84,3.62-44.18.18-54,2l-1,3c-2,3.15-1,11.14-1,16,0,13.38-.26,28.15-1,40-3.77,2.63-6.4,7.28-11,9-12.44,4.65-47.59,4.74-60,0-4.52-1.73-6.84-5.9-10-9,.11-17.89,2.13-39.91-1-56-13.85-6.42-42.55-3.74-61-5-2.63-3.77-7.28-6.4-9-11-5.51-14.73-4.37-52,2-64l7-6c19.14.11,42.68,2.36,60-1l1-3c6.66-10.92-4.7-45.15,2-56,5.95-19.24,77.81-20.15,80,2,2.08,3.31,1,11.93,1,17Z"  fill-rule="evenodd"/>
  </g>
  <g class='g_to_interact_with' mask="url(#mask)">
    <g id="right_bottom" style="isolation: isolate">
      <path d="M890,618c47.14-1,78.73,19.79,93,52,11.4,25.72,3,63.6-8,82-5.63,9.4-26.47,26.33-37,31-8.68,3.85-16.92,5-29,5H880c-29.67-7.41-51.64-26.37-63-52-11.81-26.65-3.4-65.16,8-84,2.19-3.61,7.26-5.87,10-9,2.41-2.76,2.26-7.57,5-10,3.78-2.25,9.7-1.49,14-3,6.37-2.24,13.63-6.74,20-9C879.14,619.17,886.09,620.82,890,618Z"  fill-rule="evenodd"/>
    </g>
  </g>
  <g class='g_to_interact_with' id="base" style="isolation: isolate">
    <path d="M890,618c-3.38,2.26-7,.67-12,2a101.36,101.36,0,0,0-19,7c-18.49,9.58-35.12,26.49-44,46-5.48,12-4.35,41.18,0,53,13.09,35.58,34.46,62,83,62h24c34.29-8.74,54.07-32.25,64-66,4.27-14.49,2.68-39.54-3-51C966.37,637.42,939.91,617.58,890,618Z"  fill-rule="evenodd"/>
    <path d="M566,680c.21-11.37,2.41-54.19-1-61-7-14-49.93-17.3-69-10-5.45,2.08-8.2,7.24-12,11,.11,18.52,2.25,41.29-1,58l-3,1c-3.34,2.07-11.91,1-17,1-13.93,0-30.76-1.28-43,1-3.78,5.94-8,13.13-10,21-3.08,12.39,1,45.65,5,52,1.81,2.84,7.56,7,11,8,15.35,4.42,51.35-7,57,6,6.45,10.57-4.48,43.5,2,54,4.93,15.09,64.92,16,76,5,10.28-10.23,3-44,6-61,13.56-6.27,40.11-3,58-5,3.1-3.85,8.06-5.89,10-11,5.25-13.86,5.36-46.15,0-60-1.75-4.52-5.89-6.83-9-10Z"  fill-rule="evenodd"/>
    <path d="M1070,536c-4.18,2.8-10.54,2.55-15,5-9.58,5.26-20.12,18.11-24,29-11.23,31.54,17.22,59.11,37,64h22c21-5.39,36-19.15,36-46q-.49-8-1-16C1117,550.15,1100.68,535.45,1070,536Z"  fill-rule="evenodd"/>
    <path d="M1162,446c-3.31,2.6-8.23,2.62-12,5-7.34,4.64-19.41,19.81-22,29v24c6.07,20.79,23.77,38,51,38l15-1c17.63-6.43,28-19.48,28-44,0-8.18-.24-14.45-3-20C1208.9,456.73,1193.41,445.44,1162,446Z"  fill-rule="evenodd"/>
    <path d="M968,442c-3.31,2.6-8.23,2.62-12,5-10.89,6.88-20.49,20.74-24,35-2.54,10.34,2.19,20.5,5,26,2.34,4.59,2.79,9.38,6,13,10,11.23,36.53,24.34,58,14,27.49-13.23,40.4-53.06,16-80C1006.81,443.74,990.19,441.6,968,442Z"  fill-rule="evenodd"/>
    <path d="M334,404c-4.83,3.29-12.13,2.79-18,5-1.48.56-4.75,3.53-6,4H299c-14.55,5.84-32.43,31.67-38,47-13.65,37.61,7.79,76.81,26,93,9.2,8.18,21.68,11.93,35,16,8.65,2.64,29.16,6.18,42,3,34.45-8.54,51.89-25.72,65-56,6.59-15.22,10.37-41.46,2-59-4.06-8.51-9.75-21-16-28-2.44-2.74-14-12.77-17-14H388c-4.3-1.61-9.39-6.34-14-8C363,403.05,348.41,403.87,334,404Z"  fill-rule="evenodd"/>
    <path d="M1074,346c-3.37,2.25-7.61,1.37-12,3-13.09,4.86-24.29,15.78-29,29q-.49,7.5-1,15c0,26.72,15.86,43.33,36,49h26C1146.45,426.67,1134.07,345.11,1074,346Z"  fill-rule="evenodd"/>
    <path d="M702,292c-3.86,2.66-10,2.33-14,5l-9,10c-2.51,1.44-5.86.28-8,2-5.53,4.44-11.5,16-14,23-7.77,21.83,10.31,46.42,20,55,5.15,4.56,11.75,5.39,19,8,4.6,1.65,13.69,5.08,22,3,16.26-4.07,33.84-11.86,41-25C783.69,327.72,749.16,291.25,702,292Z"  fill-rule="evenodd"/>
    <path d="M422,258c31.86-.35,48.72,8,72,14H928c16.91-4.2,52.13-20,76-14,15.12,3.82,33.37,6,48,10l10,1c59.3,21.19,120.89,38.75,161,76,5.91,5.49,8.63,13.93,14,20,4,4.56,10.84,9.7,14,15,3.41,5.73,3.42,11.25,6,18,5.11,13.38,12.19,29,18,42,2.34,5.23,1.61,10,4,15,9.83,20.46,15.39,42.47,24,65,17.32,45.31,33,95.08,50,142,5.68,15.7,8.78,31.42,14,46q1,7,2,14c9,25.16,13.38,51.83,21,80,28.58,105.65,42.84,252-15,336-3.51,5.1-9.64,8.65-14,13-5,5-8.84,11.28-14,16-4.06,3.71-8.94,5.19-14,8-4.45,2.47-8.7,7.52-13,10-7.14,4.12-13.66,4.86-22,8-10.68,4-25.57,14.25-40,6-4.71-2.69-9.47-8-14-11-5-3.35-10.65-5-15-9s-7.52-10-12-14c-3.85-3.44-8.92-4.84-12-9-1.14-1.54-.75-3.6-2-5-4.62-5.19-11.31-8.87-16-14-7.77-8.49-12.34-19.33-20-28-9.92-11.23-21.18-22.81-30-35-4.4-6.09-7.11-13.29-12-19-4.26-5-10.17-9.7-14-15-24-33.21-51-69.18-85-92-36.66-24.58-91.63-22-153-22H519c-14.28,0-31.82-.8-43,2H448c-89.69,22.5-129.65,108.68-183,169-7,7.94-10.89,18.22-18,26-2.14,2.35-5.89,3.63-8,6-5.45,6.11-8.49,14-14,20-4.08,4.47-9.71,7.71-14,12s-7.54,9.91-12,14c-12.62,11.56-29.36,18.47-41,31-18.88.16-12-5-22-9-5.68-2.28-10.43-1.5-16-4s-11.72-7.25-17-10c-43.23-22.54-66.72-56.39-84-105-4.8-13.5-5.63-30.11-9-44v-12c-4.46-18.86-4.61-57.15,0-76V928c7.44-30,6-62.62,14-92,6.68-24.62,11.74-52,19-76l6-28c7.19-16.65,9.37-35.7,16-54,9.69-26.78,18.18-56.11,28-82,10.93-28.81,17.66-58.27,30-85,3.36-7.27,2.82-13.88,6-21,21-47,33.5-103.47,66-139,33-36,94.08-57.77,145-76,18.05-6.46,37.49-8.33,56-13C404.26,259.92,415.86,262.36,422,258Z"  fill-rule="evenodd"/>
  </g>
  <g class='g_to_interact_with' id="Layer_1" data-name="Layer 1" style="isolation: isolate">
    <path d="M1162,446c-3.31,2.6-8.23,2.62-12,5-7.34,4.64-19.41,19.81-22,29v24c6.07,20.79,23.77,38,51,38l15-1c17.63-6.43,28-19.48,28-44,0-8.18-.24-14.45-3-20C1208.9,456.73,1193.41,445.44,1162,446Z"  fill-rule="evenodd"/>
    <path d="M1070,536c-4.18,2.8-10.54,2.55-15,5-9.58,5.26-20.12,18.11-24,29-11.23,31.54,17.22,59.11,37,64h22c21-5.39,36-19.15,36-46q-.49-8-1-16C1117,550.15,1100.68,535.45,1070,536Z"  fill-rule="evenodd"/>
    <path d="M566,680c.21-11.37,2.41-54.19-1-61-7-14-49.93-17.3-69-10-5.45,2.08-8.2,7.24-12,11,.11,18.52,2.25,41.29-1,58l-3,1c-3.34,2.07-11.91,1-17,1-13.93,0-30.76-1.28-43,1-3.78,5.94-8,13.13-10,21-3.08,12.39,1,45.65,5,52,1.81,2.84,7.56,7,11,8,15.35,4.42,51.35-7,57,6,6.45,10.57-4.48,43.5,2,54,4.93,15.09,64.92,16,76,5,10.28-10.23,3-44,6-61,13.56-6.27,40.11-3,58-5,3.1-3.85,8.06-5.89,10-11,5.25-13.86,5.36-46.15,0-60-1.75-4.52-5.89-6.83-9-10Z"  fill-rule="evenodd"/>
    <path d="M890,618c-3.37,2.26-7,.68-12,2a102.07,102.07,0,0,0-19,7c-18.48,9.57-35.14,26.5-44,46-5.48,12.06-4.34,41.16,0,53,13,35.59,34.49,62,83,62h24c34.28-8.69,54.08-32.28,64-66,4.27-14.5,2.67-39.53-3-51-1.85-3.75-7.19-15.17-10-18-2.66-2.68-7.21-3.45-10-6-5-4.55-9.81-13-17-15l-12,1-2-2c-3-.84-4.09,1-8-1v-2l-4,1C907.06,625.37,911,617.86,890,618Z"  fill-rule="evenodd"/>
    <path d="M968,442c-3.31,2.6-8.23,2.62-12,5-10.89,6.88-20.49,20.74-24,35-2.54,10.34,2.19,20.5,5,26,2.34,4.59,2.79,9.38,6,13,10,11.23,36.53,24.34,58,14,27.49-13.23,40.4-53.06,16-80C1006.81,443.74,990.19,441.6,968,442Z"  fill-rule="evenodd"/>
    <path d="M1074,346c-3.37,2.25-7.61,1.37-12,3-13.09,4.86-24.29,15.78-29,29q-.49,7.5-1,15c0,26.72,15.86,43.33,36,49h26C1146.45,426.67,1134.07,345.11,1074,346Z"  fill-rule="evenodd"/>
    <path d="M422,258c31.86-.35,48.72,8,72,14H928c16.91-4.2,52.13-20,76-14,15.12,3.82,33.37,6,48,10l10,1c59.3,21.19,120.89,38.75,161,76,5.91,5.49,8.63,13.93,14,20,4,4.56,10.84,9.7,14,15,3.41,5.73,3.42,11.25,6,18,5.11,13.38,12.19,29,18,42,2.34,5.23,1.61,10,4,15,9.83,20.46,15.39,42.47,24,65,17.32,45.31,33,95.08,50,142,5.68,15.7,8.78,31.42,14,46q1,7,2,14c9,25.16,13.38,51.83,21,80,28.58,105.65,42.84,252-15,336-3.51,5.1-9.64,8.65-14,13-5,5-8.84,11.28-14,16-4.06,3.71-8.94,5.19-14,8-4.45,2.47-8.7,7.52-13,10-7.14,4.12-13.66,4.86-22,8-10.68,4-25.57,14.25-40,6-4.71-2.69-9.47-8-14-11-5-3.35-10.65-5-15-9s-7.52-10-12-14c-3.85-3.44-8.92-4.84-12-9-1.14-1.54-.75-3.6-2-5-4.62-5.19-11.31-8.87-16-14-7.77-8.49-12.34-19.33-20-28-9.92-11.23-21.18-22.81-30-35-4.4-6.09-7.11-13.29-12-19-4.26-5-10.17-9.7-14-15-24-33.21-51-69.18-85-92-36.66-24.58-91.63-22-153-22H519c-14.28,0-31.82-.8-43,2H448c-89.69,22.5-129.65,108.68-183,169-7,7.94-10.89,18.22-18,26-2.14,2.35-5.89,3.63-8,6-5.45,6.11-8.49,14-14,20-4.08,4.47-9.71,7.71-14,12s-7.54,9.91-12,14c-12.62,11.56-29.36,18.47-41,31-18.88.16-12-5-22-9-5.68-2.28-10.43-1.5-16-4s-11.72-7.25-17-10c-43.23-22.54-66.72-56.39-84-105-4.8-13.5-5.63-30.11-9-44v-12c-4.46-18.86-4.61-57.15,0-76V928c7.44-30,6-62.62,14-92,6.68-24.62,11.74-52,19-76l6-28c7.19-16.65,9.37-35.7,16-54,9.69-26.78,18.18-56.11,28-82,10.93-28.81,17.66-58.27,30-85,3.36-7.27,2.82-13.88,6-21,21-47,33.5-103.47,66-139,33-36,94.08-57.77,145-76,18.05-6.46,37.49-8.33,56-13C404.26,259.92,415.86,262.36,422,258Z"  fill-rule="evenodd"/>
    <path d="M702,292c-3.86,2.66-10,2.33-14,5l-9,10c-2.51,1.44-5.86.28-8,2-5.53,4.44-11.5,16-14,23-7.77,21.83,10.31,46.42,20,55,5.15,4.56,11.75,5.39,19,8,4.6,1.65,13.69,5.08,22,3,16.26-4.07,33.84-11.86,41-25C783.69,327.72,749.16,291.25,702,292Z"  fill-rule="evenodd"/>
  </g>
  <g class='g_to_interact_with' id="Layer_2_Image" data-name="Layer 2 Image">
    <image id="Layer_2_Image-2" data-name="Layer 2 Image" width="1500" height="1080" transform="translate(0 208)" xlink:href="xbox_013.png"/>
  </g>
</svg>
